<svg width="841.89" height="595.28" xmlns="http://www.w3.org/2000/svg" xml:space="preserve" version="1.1">

 <g>
  <title>Layer 1</title>
  <g stroke="null" id="svg_1">
   <path stroke="null" id="svg_2" fill="#FFF" d="m161.23213,175.5915c2.82827,-0.23893 5.5069,-0.3584 8.03589,-0.3584c15.44327,0 27.42976,6.16446 35.9894,18.49337c8.54468,12.32891 12.8245,30.7745 12.8245,55.36065c0,24.4189 -4.51925,43.98747 -13.55775,58.68181c-9.0385,14.69435 -21.12974,22.05347 -36.27372,22.05347c-1.40665,0 -4.14514,-0.23893 -8.18553,-0.6929l-12.64492,-1.17077c0.82304,-28.14624 1.24205,-54.835 1.24205,-80.04237c0,-23.55874 -0.419,-47.57145 -1.24205,-71.99035l4.08528,0c2.13991,0 4.04039,-0.04779 5.70144,-0.11947l4.02543,-0.21504zm39.38632,24.15607c-7.45227,-10.58471 -17.49339,-15.86512 -30.10838,-15.86512c-7.10809,0 -12.5701,0.31061 -16.37106,0.93184c0,13.61915 0.02993,23.86935 0.07482,30.79839l0.07482,32.32756l-0.07482,33.47444c0,15.24389 0.14964,28.19403 0.43397,38.85042c1.99027,0.47786 3.98053,0.78848 5.95583,1.00352c1.9753,0.19115 4.4145,0.28672 7.34752,0.28672c13.93186,0 24.7212,-6.11667 32.36801,-18.37391c7.64681,-12.25723 11.4777,-29.38869 11.4777,-51.39437c0,-24.13218 -3.72614,-41.45478 -11.17841,-52.03949z" class="st0"/>
   <path stroke="null" id="svg_3" fill="#FFF" d="m243.37175,327.95873l0.50879,-24.395c0.58361,-23.48706 0.8829,-42.02822 0.8829,-55.64737c0,-14.1448 -0.22447,-29.43648 -0.65843,-45.85114c-0.43397,-16.41466 -0.68836,-25.1118 -0.73326,-26.13921l51.80677,0l-0.29929,9.5573c-10.75941,-0.62122 -25.73878,-0.93184 -44.93811,-0.93184c0.19454,17.27482 0.29929,37.03453 0.29929,59.25525c15.29362,0 27.28011,-0.47786 35.9445,-1.4097l0,10.48913c-11.59741,-0.78848 -23.5839,-1.17077 -35.9445,-1.17077l0,25.78081c0,16.72527 0.11972,30.72671 0.35915,42.00433c17.97225,0 34.37324,-0.62122 49.17304,-1.86367l-0.29929,10.2741l-56.10156,0l0,0.04779z" class="st0"/>
   <path stroke="null" id="svg_4" fill="#FFF" d="m352.67177,273.69717c0,19.4491 -2.6487,33.88062 -7.93114,43.29456c-5.28244,9.41394 -13.13875,14.12091 -23.56894,14.12091c-6.47959,0 -11.29813,-0.81237 -14.47058,-2.461l0.73326,-10.03516c3.9955,2.72383 8.08078,4.08574 12.27081,4.08574c9.84658,0 16.79006,-3.70345 20.86038,-11.08647c4.07032,-7.38301 6.10548,-21.86232 6.10548,-43.39013c0,-39.11324 -0.419,-69.88774 -1.24205,-92.27571l7.67674,0c-0.29929,12.90235 -0.43397,32.39924 -0.43397,58.44288l0,39.30439z" class="st0"/>
   <path stroke="null" id="svg_5" fill="#FFF" d="m388.91556,272.55029c-4.48932,16.65359 -7.75156,29.38869 -9.78672,38.27698s-3.0677,14.57488 -3.0677,17.15535l-7.81142,0c0,-2.4849 6.77888,-27.19051 20.35159,-74.09295c13.57272,-46.90244 20.35159,-72.8744 20.35159,-77.93977l8.26035,0c0,4.5875 6.68909,30.03381 20.0523,76.36281s20.0523,71.53638 20.0523,75.66991l-7.5271,0c0,-5.06537 -4.38457,-23.53485 -13.15371,-55.40844l-47.72149,0l0,-0.02389zm24.12262,-87.04309l-0.65843,0c0,2.24597 -7.22781,28.69579 -21.69839,79.32558l43.69607,0c-7.21284,-26.90379 -12.5701,-46.52015 -16.07177,-58.84906c-3.51664,-12.32891 -5.26747,-19.16238 -5.26747,-20.47651z" class="st0"/>
   <path stroke="null" id="svg_6" fill="#FFF" d="m477.29534,239.267c9.93637,38.46813 15.20384,62.50473 15.78745,72.1576l0.29929,0c0,-3.72735 1.0924,-10.41746 3.29217,-20.07033c2.1848,-9.65287 6.47959,-26.44982 12.85442,-50.39085l4.74372,-17.84825c4.624,-17.41818 7.78149,-29.55594 9.4575,-36.38941c1.67601,-6.83347 0.44893,-2.03093 0.44893,-4.27689l6.86866,0c0,2.10261 1.27197,-3.13002 -0.32922,3.05834s-4.60904,17.01199 -8.99361,32.49481l-8.76914,30.91786c-4.48932,16.03237 -8.42496,31.80191 -11.83685,47.30863c-2.66366,12.13777 -4.30975,28.91083 -4.89336,37.44072c-0.19454,2.79551 0.10475,63.72329 -1.67601,63.72329l-0.4639,1.45749c-1.7658,0 -4.57911,-62.36137 -4.77365,-65.18077c-0.77815,-10.99089 -3.51664,-34.43017 -8.26035,-54.52439c-5.67151,-24.03661 -11.4777,-46.73519 -17.43353,-68.14354c-5.94087,-21.38445 -14.21619,-69.52934 -12.76464,-64.60734l2.46913,0.02389c0.14964,-0.04779 0,0.90794 0,0.90794" class="st0"/>
   <path stroke="null" id="svg_7" fill="#FFF" d="m560.27298,313.1927c-5.70144,-11.22983 -8.54468,-29.03029 -8.54468,-53.37751c0,-26.37814 -0.38907,-54.33324 -1.16722,-83.88919l7.60192,0l-0.14964,10.03516c-0.38907,29.0064 -0.58361,46.85465 -0.58361,53.54476c0,24.03661 0.98765,41.31142 2.96295,51.80056s5.0879,18.15887 9.35275,22.9853c4.26486,4.82644 10.49005,7.23965 18.67558,7.23965c11.83685,0 20.15705,-6.42728 24.94566,-19.30574c4.80357,-12.87846 7.19788,-33.85673 7.19788,-62.93481c0,-5.9972 -0.13468,-16.05626 -0.40404,-30.22496c-0.26936,-14.1448 -0.52375,-25.20737 -0.76318,-33.13993l7.30263,0c-0.19454,8.41042 -0.35915,20.90659 -0.50879,37.5124c-0.14964,16.60581 -0.22447,30.32053 -0.22447,41.12028c0,24.65783 -3.2772,43.39013 -9.83161,56.2447c-6.55441,12.83067 -15.84731,19.25796 -27.87869,19.25796c-12.95918,0 -22.29696,-5.61491 -27.98344,-16.86863z" class="st0"/>
  </g>
  <path stroke="null" id="svg_8" fill="#FFF" d="m340.80794,123.19138c-12.41482,24.99143 -47.64335,29.43761 -49.3401,-1.13597c-19.30261,-1.17262 -27.63516,-20.93612 -10.95327,-28.81465c12.88521,-6.55933 29.6175,-4.06752 44.41785,-3.93316c-31.73424,-5.80202 -59.65499,-38.07345 -9.9453,-38.30553c1.22636,-14.02256 27.38317,-22.82941 38.95802,-9.40538c8.83653,10.2482 8.16455,23.07371 7.72777,34.78768c10.66768,-23.46458 63.82126,-42.47077 57.50466,-3.87208c34.43896,14.19357 5.56063,34.40902 -25.88801,28.97344c17.92506,4.14081 32.22142,13.87598 40.10038,22.42632c4.09908,4.44618 15.48913,16.85639 16.04351,18.34659c0.30239,0.8306 -3.72949,0.68403 -3.72949,0.68403c-14.09477,-15.91585 -24.07367,-29.20552 -51.23845,-35.49613c29.7351,12.33692 24.62805,41.22486 -12.85161,35.12969c-15.33793,30.52472 -53.06959,3.74994 -40.80596,-19.38485zm35.46372,12.30028c-7.72777,-8.44041 -13.1708,-17.6137 -16.4299,-27.47103c0.75598,10.63907 6.6358,19.66579 16.4299,27.47103zm-75.09372,-18.20001c9.7605,-7.45101 21.10016,-13.25303 33.80057,-17.69921c-14.36356,2.78497 -25.36723,8.95343 -33.80057,17.69921zm41.12515,-34.09143c-9.12212,-7.5243 -16.83309,-15.84256 -22.04093,-25.17465c2.87271,10.45585 10.70128,18.62753 22.04093,25.17465zm26.96318,5.20349c11.10446,-4.34846 23.78808,-9.60081 37.14367,-11.53075c-13.67479,-0.47638 -26.66079,5.50886 -37.14367,11.53075z" class="st0"/>
  <path id="svg_9" stroke-miterlimit="10" stroke-width="2" stroke="#FFF" fill="none" d="m139.69,394.92c80.69,0 282.1,1 282.1,1" class="st1"/>
  <path stroke="#FFF" id="svg_10" stroke-miterlimit="10" stroke-width="2" fill="none" d="m419.63998,395.92c67.86191,0 200.19999,0 200.19999,0" class="st1"/>
 </g>
</svg>